<svg xmlns="http://www.w3.org/2000/svg" xmlns:xlink="http://www.w3.org/1999/xlink" width="500" zoomAndPan="magnify" viewBox="0 0 375 374.999991" height="500" preserveAspectRatio="xMidYMid meet" version="1.0"><defs><g/><clipPath id="id1"><path d="M 114 109.214844 L 261 109.214844 L 261 178.964844 L 114 178.964844 Z M 114 109.214844 " clip-rule="nonzero"/></clipPath></defs><path fill="#289dd2" d="M 256.902344 144.238281 L 209.550781 170.042969 L 263.6875 153.558594 Z M 256.902344 144.238281 " fill-opacity="1" fill-rule="evenodd"/><path fill="#289dd2" d="M 259.925781 157.691406 L 214.171875 171.128906 L 256.113281 166.46875 L 265.519531 165.429688 L 263.292969 162.351562 Z M 259.925781 157.691406 " fill-opacity="1" fill-rule="evenodd"/><path fill="#289dd2" d="M 117.984375 144.238281 L 165.320312 170.042969 L 111.183594 153.558594 Z M 117.984375 144.238281 " fill-opacity="1" fill-rule="evenodd"/><path fill="#289dd2" d="M 114.945312 157.691406 L 160.714844 171.128906 L 118.757812 166.46875 L 109.367188 165.429688 L 111.59375 162.351562 Z M 114.945312 157.691406 " fill-opacity="1" fill-rule="evenodd"/><path fill="#f7f7f7" d="M 187.1875 133.800781 L 187.070312 133.867188 L 187.433594 133.832031 L 187.796875 133.867188 L 187.683594 133.800781 L 188.558594 133.71875 C 188.175781 133.847656 187.796875 133.980469 187.433594 134.113281 C 187.070312 133.980469 186.691406 133.847656 186.3125 133.71875 Z M 187.1875 133.800781 " fill-opacity="1" fill-rule="evenodd"/><g clip-path="url(#id1)"><path fill="#f7f7f7" d="M 182.21875 141.472656 L 182.285156 130.820312 L 142.921875 109.199219 L 114.039062 137.785156 L 174.792969 171.671875 L 186.558594 178.242188 L 187.054688 178.949219 L 187.453125 178.734375 L 187.847656 178.949219 L 188.34375 178.242188 L 200.109375 171.671875 L 260.863281 137.785156 L 231.980469 109.199219 L 192.617188 130.820312 L 192.683594 141.472656 L 187.46875 141.539062 L 182.253906 141.472656 Z M 180.898438 149.226562 C 181.359375 147.269531 181.824219 145.308594 182.269531 143.367188 L 187.453125 143.515625 L 192.632812 143.367188 C 193.078125 145.324219 193.542969 147.285156 194.003906 149.226562 L 194.695312 152.175781 C 194.828125 152.769531 195.058594 153.066406 194.746094 153.640625 C 194.464844 154.152344 194.234375 154.613281 193.953125 155.140625 C 192.949219 157.117188 191.925781 159.023438 190.933594 161 C 190.421875 162.003906 189.910156 162.945312 189.414062 163.949219 C 189.167969 164.460938 188.921875 164.902344 188.65625 165.414062 C 188.476562 165.761719 188.09375 166.632812 187.898438 166.914062 L 188.226562 157.890625 L 189.183594 157.28125 L 189.265625 157.214844 C 192.335938 154.578125 188.441406 150.25 185.289062 152.949219 C 184.066406 154.003906 184.363281 156.144531 185.621094 157.214844 L 185.703125 157.28125 L 186.660156 157.890625 L 186.988281 166.914062 C 186.792969 166.632812 186.410156 165.761719 186.230469 165.414062 C 185.984375 164.921875 185.734375 164.460938 185.488281 163.949219 C 184.992188 162.945312 184.464844 162.003906 183.96875 161 C 182.980469 159.023438 181.972656 157.097656 180.949219 155.140625 C 180.683594 154.613281 180.4375 154.152344 180.15625 153.640625 C 179.84375 153.066406 180.058594 152.785156 180.207031 152.175781 Z M 180.898438 149.226562 " fill-opacity="1" fill-rule="evenodd"/></g><g fill="#f7f7f7" fill-opacity="1"><g transform="translate(76.749011, 229.606917)"><g><path d="M 1.921875 -43.359375 L 13.671875 -43.359375 C 16.835938 -43.359375 19.132812 -42.582031 20.5625 -41.03125 C 21.988281 -39.476562 22.703125 -36.953125 22.703125 -33.453125 L 22.703125 -31.546875 C 22.703125 -27.398438 21.222656 -24.925781 18.265625 -24.125 C 20.085938 -23.65625 21.367188 -22.5625 22.109375 -20.84375 C 22.847656 -19.125 23.21875 -16.851562 23.21875 -14.03125 C 23.21875 -9.414062 22.523438 -5.921875 21.140625 -3.546875 C 19.765625 -1.179688 17.273438 0 13.671875 0 L 1.921875 0 Z M 12.15625 -27.046875 C 12.894531 -27.046875 13.398438 -27.320312 13.671875 -27.875 C 13.941406 -28.4375 14.078125 -29.222656 14.078125 -30.234375 L 14.078125 -34.578125 C 14.078125 -35.984375 13.457031 -36.6875 12.21875 -36.6875 L 10.390625 -36.6875 L 10.390625 -27.046875 Z M 11.25 -7.625 C 13.507812 -7.625 14.640625 -8.695312 14.640625 -10.84375 L 14.640625 -16.25 C 14.640625 -17.5625 14.441406 -18.550781 14.046875 -19.21875 C 13.660156 -19.894531 12.984375 -20.234375 12.015625 -20.234375 L 10.390625 -20.234375 L 10.390625 -7.671875 Z M 11.25 -7.625 "/></g></g></g><g fill="#f7f7f7" fill-opacity="1"><g transform="translate(100.921051, 229.606917)"><g><path d="M 12.265625 0.40625 C 8.765625 0.40625 6.101562 -0.660156 4.28125 -2.796875 C 2.46875 -4.929688 1.5625 -7.9375 1.5625 -11.8125 L 1.5625 -32.453125 C 1.5625 -36.179688 2.46875 -38.992188 4.28125 -40.890625 C 6.101562 -42.796875 8.765625 -43.75 12.265625 -43.75 C 15.765625 -43.75 18.421875 -42.796875 20.234375 -40.890625 C 22.054688 -38.992188 22.96875 -36.179688 22.96875 -32.453125 L 22.96875 -11.8125 C 22.96875 -7.90625 22.054688 -4.890625 20.234375 -2.765625 C 18.421875 -0.648438 15.765625 0.40625 12.265625 0.40625 Z M 12.265625 -7.5625 C 13.035156 -7.5625 13.554688 -7.898438 13.828125 -8.578125 C 14.097656 -9.253906 14.234375 -10.195312 14.234375 -11.40625 L 14.234375 -32.609375 C 14.234375 -33.546875 14.101562 -34.304688 13.84375 -34.890625 C 13.59375 -35.484375 13.082031 -35.78125 12.3125 -35.78125 C 10.863281 -35.78125 10.140625 -34.6875 10.140625 -32.5 L 10.140625 -11.359375 C 10.140625 -10.109375 10.289062 -9.160156 10.59375 -8.515625 C 10.894531 -7.878906 11.453125 -7.5625 12.265625 -7.5625 Z M 12.265625 -7.5625 "/></g></g></g><g fill="#f7f7f7" fill-opacity="1"><g transform="translate(125.44634, 229.606917)"><g><path d="M 12.265625 0.40625 C 8.765625 0.40625 6.101562 -0.660156 4.28125 -2.796875 C 2.46875 -4.929688 1.5625 -7.9375 1.5625 -11.8125 L 1.5625 -32.453125 C 1.5625 -36.179688 2.46875 -38.992188 4.28125 -40.890625 C 6.101562 -42.796875 8.765625 -43.75 12.265625 -43.75 C 15.765625 -43.75 18.421875 -42.796875 20.234375 -40.890625 C 22.054688 -38.992188 22.96875 -36.179688 22.96875 -32.453125 L 22.96875 -11.8125 C 22.96875 -7.90625 22.054688 -4.890625 20.234375 -2.765625 C 18.421875 -0.648438 15.765625 0.40625 12.265625 0.40625 Z M 12.265625 -7.5625 C 13.035156 -7.5625 13.554688 -7.898438 13.828125 -8.578125 C 14.097656 -9.253906 14.234375 -10.195312 14.234375 -11.40625 L 14.234375 -32.609375 C 14.234375 -33.546875 14.101562 -34.304688 13.84375 -34.890625 C 13.59375 -35.484375 13.082031 -35.78125 12.3125 -35.78125 C 10.863281 -35.78125 10.140625 -34.6875 10.140625 -32.5 L 10.140625 -11.359375 C 10.140625 -10.109375 10.289062 -9.160156 10.59375 -8.515625 C 10.894531 -7.878906 11.453125 -7.5625 12.265625 -7.5625 Z M 12.265625 -7.5625 "/></g></g></g><g fill="#f7f7f7" fill-opacity="1"><g transform="translate(149.971629, 229.606917)"><g><path d="M 1.921875 0 L 1.921875 -43.359375 L 10.5 -43.359375 L 10.5 -25.984375 L 14.53125 -43.359375 L 23.265625 -43.359375 L 18.421875 -23.515625 L 24.28125 0 L 15.296875 0 L 10.546875 -21 L 10.546875 0 Z M 1.921875 0 "/></g></g></g><g fill="#f7f7f7" fill-opacity="1"><g transform="translate(173.790429, 229.606917)"><g/></g></g><g fill="#f7f7f7" fill-opacity="1"><g transform="translate(185.598902, 229.606917)"><g><path d="M 12.21875 0.40625 C 8.28125 0.40625 5.4375 -0.566406 3.6875 -2.515625 C 1.9375 -4.472656 1.0625 -7.625 1.0625 -11.96875 L 1.0625 -16.203125 L 9.59375 -16.203125 L 9.59375 -10.796875 C 9.59375 -8.640625 10.28125 -7.5625 11.65625 -7.5625 C 12.425781 -7.5625 12.960938 -7.789062 13.265625 -8.25 C 13.578125 -8.707031 13.734375 -9.472656 13.734375 -10.546875 C 13.734375 -11.960938 13.5625 -13.128906 13.21875 -14.046875 C 12.882812 -14.972656 12.457031 -15.75 11.9375 -16.375 C 11.414062 -17 10.484375 -17.96875 9.140625 -19.28125 L 5.40625 -23.015625 C 2.507812 -25.835938 1.0625 -28.96875 1.0625 -32.40625 C 1.0625 -36.101562 1.910156 -38.914062 3.609375 -40.84375 C 5.304688 -42.78125 7.785156 -43.75 11.046875 -43.75 C 14.953125 -43.75 17.765625 -42.710938 19.484375 -40.640625 C 21.203125 -38.578125 22.0625 -35.34375 22.0625 -30.9375 L 13.21875 -30.9375 L 13.171875 -33.921875 C 13.171875 -34.484375 13.007812 -34.929688 12.6875 -35.265625 C 12.375 -35.609375 11.929688 -35.78125 11.359375 -35.78125 C 10.679688 -35.78125 10.175781 -35.59375 9.84375 -35.21875 C 9.507812 -34.851562 9.34375 -34.351562 9.34375 -33.71875 C 9.34375 -32.300781 10.148438 -30.835938 11.765625 -29.328125 L 16.8125 -24.484375 C 17.988281 -23.335938 18.960938 -22.25 19.734375 -21.21875 C 20.503906 -20.195312 21.125 -18.988281 21.59375 -17.59375 C 22.070312 -16.195312 22.3125 -14.535156 22.3125 -12.609375 C 22.3125 -8.335938 21.523438 -5.097656 19.953125 -2.890625 C 18.390625 -0.691406 15.8125 0.40625 12.21875 0.40625 Z M 12.21875 0.40625 "/></g></g></g><g fill="#f7f7f7" fill-opacity="1"><g transform="translate(208.862598, 229.606917)"><g><path d="M 5.65625 0 L 5.65625 -35.03125 L 0.5 -35.03125 L 0.5 -43.359375 L 19.484375 -43.359375 L 19.484375 -35.03125 L 14.328125 -35.03125 L 14.328125 0 Z M 5.65625 0 "/></g></g></g><g fill="#f7f7f7" fill-opacity="1"><g transform="translate(228.846162, 229.606917)"><g><path d="M 12.265625 0.40625 C 8.765625 0.40625 6.101562 -0.660156 4.28125 -2.796875 C 2.46875 -4.929688 1.5625 -7.9375 1.5625 -11.8125 L 1.5625 -32.453125 C 1.5625 -36.179688 2.46875 -38.992188 4.28125 -40.890625 C 6.101562 -42.796875 8.765625 -43.75 12.265625 -43.75 C 15.765625 -43.75 18.421875 -42.796875 20.234375 -40.890625 C 22.054688 -38.992188 22.96875 -36.179688 22.96875 -32.453125 L 22.96875 -11.8125 C 22.96875 -7.90625 22.054688 -4.890625 20.234375 -2.765625 C 18.421875 -0.648438 15.765625 0.40625 12.265625 0.40625 Z M 12.265625 -7.5625 C 13.035156 -7.5625 13.554688 -7.898438 13.828125 -8.578125 C 14.097656 -9.253906 14.234375 -10.195312 14.234375 -11.40625 L 14.234375 -32.609375 C 14.234375 -33.546875 14.101562 -34.304688 13.84375 -34.890625 C 13.59375 -35.484375 13.082031 -35.78125 12.3125 -35.78125 C 10.863281 -35.78125 10.140625 -34.6875 10.140625 -32.5 L 10.140625 -11.359375 C 10.140625 -10.109375 10.289062 -9.160156 10.59375 -8.515625 C 10.894531 -7.878906 11.453125 -7.5625 12.265625 -7.5625 Z M 12.265625 -7.5625 "/></g></g></g><g fill="#f7f7f7" fill-opacity="1"><g transform="translate(253.371461, 229.606917)"><g><path d="M 1.921875 -43.359375 L 15.234375 -43.359375 C 17.359375 -43.359375 19 -42.875 20.15625 -41.90625 C 21.320312 -40.945312 22.101562 -39.601562 22.5 -37.875 C 22.90625 -36.144531 23.109375 -33.929688 23.109375 -31.234375 C 23.109375 -28.785156 22.789062 -26.867188 22.15625 -25.484375 C 21.519531 -24.109375 20.410156 -23.148438 18.828125 -22.609375 C 20.140625 -22.335938 21.085938 -21.679688 21.671875 -20.640625 C 22.265625 -19.597656 22.5625 -18.1875 22.5625 -16.40625 L 22.453125 0 L 13.984375 0 L 13.984375 -16.953125 C 13.984375 -18.171875 13.742188 -18.945312 13.265625 -19.28125 C 12.796875 -19.613281 11.941406 -19.78125 10.703125 -19.78125 L 10.703125 0 L 1.921875 0 Z M 12.8125 -27.296875 C 14.03125 -27.296875 14.640625 -28.609375 14.640625 -31.234375 C 14.640625 -32.378906 14.585938 -33.238281 14.484375 -33.8125 C 14.378906 -34.382812 14.191406 -34.78125 13.921875 -35 C 13.660156 -35.21875 13.273438 -35.328125 12.765625 -35.328125 L 10.75 -35.328125 L 10.75 -27.296875 Z M 12.8125 -27.296875 "/></g></g></g><g fill="#f7f7f7" fill-opacity="1"><g transform="translate(277.442579, 229.606917)"><g><path d="M 1.921875 0 L 1.921875 -43.359375 L 19.28125 -43.359375 L 19.28125 -34.96875 L 10.75 -34.96875 L 10.75 -26.546875 L 18.921875 -26.546875 L 18.921875 -18.375 L 10.75 -18.375 L 10.75 -8.421875 L 19.828125 -8.421875 L 19.828125 0 Z M 1.921875 0 "/></g></g></g><g fill="#289dd2" fill-opacity="1"><g transform="translate(160.791179, 260.181827)"><g><path d="M 1.15625 -15.578125 L 4.546875 -15.578125 L 4.546875 0 L 1.15625 0 Z M 1.15625 -15.578125 "/></g></g></g><g fill="#289dd2" fill-opacity="1"><g transform="translate(166.180193, 260.181827)"><g><path d="M 0.71875 -15.578125 L 4.328125 -15.578125 L 8.59375 -4.5 L 12.90625 -15.578125 L 16.484375 -15.578125 L 10.265625 0 L 6.953125 0 Z M 0.71875 -15.578125 "/></g></g></g><g fill="#289dd2" fill-opacity="1"><g transform="translate(183.038095, 260.181827)"><g><path d="M 1.15625 -15.578125 L 4.546875 -15.578125 L 4.546875 -9.328125 L 11.34375 -9.328125 L 11.34375 -15.578125 L 14.734375 -15.578125 L 14.734375 0 L 11.34375 0 L 11.34375 -6.53125 L 4.546875 -6.53125 L 4.546875 0 L 1.15625 0 Z M 1.15625 -15.578125 "/></g></g></g><g fill="#289dd2" fill-opacity="1"><g transform="translate(198.582086, 260.181827)"><g><path d="M 1.15625 -15.578125 L 4.546875 -15.578125 L 4.546875 -8.796875 L 10.421875 -15.578125 L 14.453125 -15.578125 L 7.859375 -7.984375 L 14.90625 0 L 10.875 0 L 4.546875 -7.15625 L 4.546875 0 L 1.15625 0 Z M 1.15625 -15.578125 "/></g></g></g></svg>